<svg width="150" height="150" viewBox="0 0 150 150" fill="none" xmlns="http://www.w3.org/2000/svg">
<path d="M24.8426 83C3.09414 60.6308 3.09415 24.3692 24.8426 2L32.0008 9.3623C27.7699 13.7139 24.4136 18.8807 22.1239 24.5664C19.8342 30.252 18.6561 36.3459 18.6561 42.5C18.6561 48.6541 19.8342 54.7479 22.1239 60.4336C24.4136 66.1193 27.7699 71.2861 32.0008 75.6377L24.8426 83ZM39.159 68.2744C35.8681 64.8898 33.2575 60.8716 31.4764 56.4492C29.6953 52.0268 28.7782 47.2868 28.7782 42.5C28.7782 37.7132 29.6953 32.9732 31.4764 28.5508C33.2575 24.1284 35.8681 20.1102 39.159 16.7256L46.3172 24.0879C43.9661 26.5055 42.1014 29.3761 40.829 32.5352C39.5565 35.6943 38.9012 39.0805 38.9012 42.5C38.9012 45.9195 39.5565 49.3057 40.829 52.4648C42.1014 55.6239 43.9661 58.4945 46.3172 60.9121L39.159 68.2744ZM120.753 42.5C120.753 43.3137 120.724 44.1259 120.672 44.9355C119.009 44.3694 116.778 43.9202 114.15 44.1475C112.976 44.2491 111.764 44.4821 110.523 44.8721C110.593 44.0848 110.63 43.2933 110.63 42.5C110.63 39.0805 109.974 35.6943 108.702 32.5352C107.43 29.3761 105.565 26.5055 103.214 24.0879L110.372 16.7256C113.663 20.1102 116.273 24.1284 118.055 28.5508C119.836 32.9732 120.753 37.7132 120.753 42.5ZM124.688 2C142.149 19.9552 145.592 46.8721 135.015 68.3633C134.928 67.8146 134.829 67.2512 134.717 66.6729C134.717 66.619 134.718 66.5597 134.718 66.4951C134.718 66.1618 134.715 65.6878 134.704 65.1123C134.681 63.9654 134.623 62.3926 134.476 60.7148C134.332 59.0534 134.094 57.2024 133.691 55.5273C133.324 53.9978 132.693 52.037 131.422 50.667L131.999 45C131.543 41.5811 131.085 39.7213 130.723 38.709C130.34 33.8536 129.225 29.0812 127.407 24.5664C125.117 18.8807 121.761 13.7139 117.53 9.3623L124.688 2Z" fill="#D2990B"/>
<path d="M60.3725 58.291L54.6242 58.291L65.4544 35.985L52.3957 35.985L52.3957 31.0698L71.3068 31.0698L71.3068 35.506L60.3725 58.291ZM85.4902 46.7735L85.4902 42.5456L95.1749 42.5456L95.1749 57.0622C93.9252 57.6454 92.6201 58.0758 91.2593 58.3535C89.8986 58.6312 88.4199 58.77 86.8231 58.77C84.9348 58.77 83.2339 58.4785 81.7205 57.8953C80.2209 57.3121 78.9435 56.4443 77.8882 55.2919C76.833 54.1394 76.0207 52.7093 75.4515 51.0015C74.8961 49.2936 74.6184 47.315 74.6184 45.0657C74.6184 42.8025 74.9099 40.7753 75.4931 38.9841C76.0902 37.193 76.951 35.6796 78.0757 34.4438C79.2142 33.1942 80.6027 32.2431 82.2411 31.5905C83.8934 30.9379 85.7748 30.6116 87.8853 30.6116C89.135 30.6116 90.3499 30.7227 91.5301 30.9448C92.7242 31.1531 93.9114 31.4377 95.0916 31.7987L95.0916 36.8598C94.0641 36.3738 92.9255 35.9781 91.6759 35.6726C90.4401 35.3533 89.1905 35.1936 87.927 35.1936C86.6496 35.1936 85.518 35.4157 84.5321 35.8601C83.5602 36.3044 82.741 36.9361 82.0745 37.7553C81.4219 38.5745 80.9221 39.5812 80.575 40.7753C80.2417 41.9694 80.0751 43.3162 80.0751 44.8158C80.0751 46.2598 80.207 47.565 80.4708 48.7313C80.7346 49.8837 81.1581 50.8696 81.7413 51.6888C82.3383 52.4941 83.102 53.112 84.0323 53.5424C84.9626 53.9728 86.0942 54.188 87.4271 54.188C87.7465 54.188 88.0242 54.1811 88.2602 54.1672C88.4963 54.1394 88.7184 54.1047 88.9267 54.0631C89.135 54.0214 89.3294 53.9728 89.5099 53.9173C89.7042 53.8618 89.9056 53.7993 90.1138 53.7298L90.1138 46.7735L85.4902 46.7735Z" fill="#D2990B"/>
<path d="M125.477 45.7832L124.93 51.2631L129.316 46.6963L127.672 54.3725C130.049 56.9331 129.864 67.1607 129.864 67.1607C132.423 79.9504 126.933 80.1328 126.933 80.1328C121.818 80.3136 121.818 74.1024 121.818 74.1024C117.432 72.0918 116.153 67.3447 116.153 67.3447C115.973 74.293 111.585 82.1484 111.585 82.1484C109.393 86.9025 112.493 89.2731 112.493 89.2731C116.147 97.135 109.393 105.721 109.393 105.721C111.585 107 115.785 113.572 115.785 113.572C120.9 117.231 119.074 123.444 119.074 123.444C117.24 132.945 108.84 138.793 108.84 138.793C105.186 145.191 104.639 138.793 104.639 138.793C104.821 132.401 109.39 134.41 109.39 134.41C109.204 132.766 111.764 130.577 111.764 130.577C115.973 125.094 113.594 118.876 113.594 118.876C109.204 114.304 101.165 110.471 101.165 110.471C101.351 115.043 96.0497 129.112 96.0497 129.112C92.5723 135.689 94.9559 141.537 94.9559 141.537C96.6002 142.631 98.062 146.291 98.062 146.291C98.4236 149.579 92.9404 148.297 92.9404 148.297C88.7366 148.297 91.6609 141.902 91.6609 141.902C87.6363 140.619 90.3814 135.14 90.3814 135.14C93.3084 125.453 92.7553 108.827 92.7553 108.827C84.8983 113.577 63.6994 106.277 63.6994 106.277C63.6994 111.389 60.5965 122.535 60.5965 122.535C59.8626 142.814 70.8269 144.462 70.8269 144.462C73.7489 147.565 68.4546 147.753 68.4546 147.753C63.1555 147.753 63.3346 143.553 63.3346 143.553C59.683 143.553 56.5736 130.392 56.5736 130.392C52.0035 126.195 54.2014 116.508 54.2014 116.508C53.291 109.746 48.171 109.381 48.171 109.381C46.8964 112.666 33.7354 126.742 33.7354 126.742C29.3482 135.335 32.6367 145.009 32.6367 145.009C33.7354 149.213 28.6153 147.021 28.6153 147.021C24.2309 143.919 27.7034 142.271 27.7034 142.271C28.4373 141.174 26.9695 138.8 26.9695 138.8C24.778 134.417 30.442 124.548 30.442 124.548C31.1759 113.767 34.8292 114.129 34.8292 114.129C39.7587 109.746 37.9304 103.713 37.9304 103.713C34.2788 92.5703 37.9304 85.4347 37.9304 85.4347C31.3534 86.7158 31.7193 95.8528 31.7193 95.8528C28.2462 118.325 18.7466 114.672 18.7466 114.672C25.5082 112.116 22.7695 99.1408 22.7695 99.1408C23.3167 77.0289 40.3118 81.7776 40.3118 81.7776C45.7918 73.7366 61.6893 76.2977 61.6893 76.2977C65.3491 78.1227 79.4134 78.8598 79.4134 78.8598C90.9243 77.2156 98.7808 62.2311 98.7808 62.2311C110.291 42.8606 121.443 51.0835 121.443 51.0835L125.477 45.7832Z" fill="#D2990B"/>
</svg>
